<svg xmlns="http://www.w3.org/2000/svg" version="1.1" xmlns:xlink="http://www.w3.org/1999/xlink" xmlns:svgjs="http://svgjs.dev/svgjs" width="100%" height="100%" viewBox="0 0 1000 600"><rect width="1000" height="600" x="0" y="0" fill="#7b2cbf"/><g><rect width="333.3333333333333" height="333.3333333333333" rx="13.333333333333334" ry="13.333333333333334" y="227.9709078012531" fill="#ffffff" transform="matrix(0.6075371389707586,0,0,0.6075371389707585,0,60.24298366140792)" x="205.74868774414062"/><path d="M381.2552148562072 319.63758173159874Q394.9314271094335 319.63758173159874 404.9255822175604 323.5241976069815Q414.9197373256874 327.4108134823641 424.7970017307953 335.6223853694509L424.7970017307953 335.6223853694509L413.02026340162814 347.8374638349394Q405.24703165086277 341.52536587191184 398.08747609094723 338.77843435096463Q390.92792053103176 336.03150283001753 381.2552148562072 336.03150283001753L381.2552148562072 336.03150283001753Q370.09215271789 336.03150283001753 360.74089647636765 342.0513740354975Q351.36041755909065 348.0420225652227 345.48665973238445 361.19222665486336Q339.5836792299235 374.3424307445041 339.5836792299235 394.53529969104125L339.5836792299235 394.53529969104125Q339.5836792299235 425.04377317900764 349.5778343380505 439.1291028928006Q359.5719894461774 453.2436552823483 379.1511822018647 453.2436552823483L379.1511822018647 453.2436552823483Q395.1359858397168 453.2436552823483 406.70816543860064 446.7269985890374L406.70816543860064 446.7269985890374L406.70816543860064 402.9514303084113L381.05065612592387 402.9514303084113L378.7128420655433 386.76206794027587L426.49191692457117 386.76206794027587L426.49191692457117 456.80882172442864Q403.96123391765343 469.63757638076703 379.1511822018647 469.63757638076703L379.1511822018647 469.63757638076703Q350.54218263795747 469.63757638076703 334.4404882970863 450.4967237614011Q318.3387939562151 431.3558711420352 318.3387939562151 394.53529969104125L318.3387939562151 394.53529969104125Q318.3387939562151 370.981823032707 326.8718152766042 354.0326710949479Q335.3756139212385 337.0835191571888 349.78239306833376 328.37516178227116Q364.2183948911838 319.63758173159874 381.2552148562072 319.63758173159874L381.2552148562072 319.63758173159874Z " fill="#7b2cbf" transform="matrix(0.6075371389707586,0,0,0.6075371389707585,0,60.24298366140792)"/><path d="M685.3317758303283 319.63758173159874Q699.0079880835546 319.63758173159874 709.0021431916815 323.5241976069815Q718.9962982998085 327.4108134823641 728.8735627049164 335.6223853694509L728.8735627049164 335.6223853694509L717.0968243757493 347.8374638349394Q709.3235926249838 341.52536587191184 702.1640370650683 338.77843435096463Q695.0044815051529 336.03150283001753 685.3317758303283 336.03150283001753L685.3317758303283 336.03150283001753Q674.168713692011 336.03150283001753 664.8174574504887 342.0513740354975Q655.4369785332117 348.0420225652227 649.5632207065055 361.19222665486336Q643.6602402040446 374.3424307445041 643.6602402040446 394.53529969104125L643.6602402040446 394.53529969104125Q643.6602402040446 425.04377317900764 653.6543953121716 439.1291028928006Q663.6485504202985 453.2436552823483 683.2277431759858 453.2436552823483L683.2277431759858 453.2436552823483Q699.2125468138379 453.2436552823483 710.7847264127217 446.7269985890374L710.7847264127217 446.7269985890374L710.7847264127217 402.9514303084113L685.127217100045 402.9514303084113L682.7894030396644 386.76206794027587L730.5684778986922 386.76206794027587L730.5684778986922 456.80882172442864Q708.0377948917745 469.63757638076703 683.2277431759858 469.63757638076703L683.2277431759858 469.63757638076703Q654.6187436120786 469.63757638076703 638.5170492712073 450.4967237614011Q622.4153549303362 431.3558711420352 622.4153549303362 394.53529969104125L622.4153549303362 394.53529969104125Q622.4153549303362 370.981823032707 630.9483762507252 354.0326710949479Q639.4521748953596 337.0835191571888 653.8589540424548 328.37516178227116Q668.2949558653048 319.63758173159874 685.3317758303283 319.63758173159874L685.3317758303283 319.63758173159874ZM863.9699927191585 322.1507318465079L863.9699927191585 420.6311491400394Q863.9699927191585 435.1548189901536 857.9501215136785 446.20099042545183Q851.9594729839533 457.24716186075 840.5041840880884 463.4423691207585Q829.019672516469 469.63757638076703 813.0348688786167 469.63757638076703L813.0348688786167 469.63757638076703Q788.8384933536779 469.63757638076703 775.6882892640372 456.282813560843Q762.5380851743965 442.92805074091905 762.5380851743965 420.6311491400394L762.5380851743965 420.6311491400394L762.5380851743965 322.1507318465079L782.5263953906504 322.1507318465079L782.5263953906504 419.1407926765467Q782.5263953906504 435.97305391128685 790.0950684111325 444.38918452865687Q797.6929641073693 452.80531514602694 813.0348688786167 452.80531514602694L813.0348688786167 452.80531514602694Q828.6105550559023 452.80531514602694 836.1792280763844 444.50607523167594Q843.7479010968666 436.2068353173249 843.7479010968666 419.1407926765467L843.7479010968666 419.1407926765467L843.7479010968666 322.1507318465079L863.9699927191585 322.1507318465079ZM903.9466131516662 322.1507318465079L923.9349233679201 322.1507318465079L923.9349233679201 467.1244262658579L903.9466131516662 467.1244262658579L903.9466131516662 322.1507318465079ZM958.8560208948549 322.1507318465079L1045.3259184531812 322.1507318465079L1045.3259184531812 338.36931689039807L973.5842494752524 450.0876063008345L1045.3259184531812 450.0876063008345L1043.0173270685552 467.1244262658579L951.2873478743727 467.1244262658579L951.2873478743727 451.1396226280058L1023.6426930431513 338.98299308124797L958.8560208948549 338.98299308124797L958.8560208948549 322.1507318465079ZM1127.5877507028226 319.63758173159874Q1145.9103684010552 319.63758173159874 1159.6742486815456 328.37516178227116Q1173.4673516377911 337.0835191571888 1181.1529153612921 353.9157803919288Q1188.8092564090384 370.74804162666896 1188.8092564090384 394.7398584213245L1188.8092564090384 394.7398584213245Q1188.8092564090384 418.3225577554135 1181.1529153612921 435.1548189901536Q1173.4673516377911 451.9870802248937 1159.6742486815456 460.8123283028304Q1145.9103684010552 469.63757638076703 1127.5877507028226 469.63757638076703L1127.5877507028226 469.63757638076703Q1109.2943556803443 469.63757638076703 1095.5012527240992 461.0168870331137Q1081.7373724436084 452.3961976854603 1074.0518087201071 435.56393645072023Q1066.3662449966064 418.73167521598015 1066.3662449966064 394.9444171516078L1066.3662449966064 394.9444171516078Q1066.3662449966064 371.5954992235569 1074.0518087201071 354.5586792585335Q1081.7373724436084 337.52185929351015 1095.618143427118 328.57972051255445Q1109.4989144106275 319.63758173159874 1127.5877507028226 319.63758173159874L1127.5877507028226 319.63758173159874ZM1127.5877507028226 336.03150283001753Q1108.6514568137397 336.03150283001753 1098.1312935420274 350.3506139498485Q1087.6111302703148 364.6697250696795 1087.6111302703148 394.9444171516078L1087.6111302703148 394.9444171516078Q1087.6111302703148 425.04377317900764 1098.248184245046 439.1291028928006Q1108.8560155440232 453.2436552823483 1127.5877507028226 453.2436552823483L1127.5877507028226 453.2436552823483Q1167.56437113533 453.2436552823483 1167.56437113533 394.7398584213245L1167.56437113533 394.7398584213245Q1167.56437113533 336.03150283001753 1127.5877507028226 336.03150283001753L1127.5877507028226 336.03150283001753ZM1320.749637441767 322.1507318465079L1320.749637441767 420.6311491400394Q1320.749637441767 435.1548189901536 1314.7589889120418 446.20099042545183Q1308.739117706562 457.24716186075 1297.2838288106968 463.4423691207585Q1285.8285399148322 469.63757638076703 1269.8145136012254 469.63757638076703L1269.8145136012254 469.63757638076703Q1245.6181380762864 469.63757638076703 1232.4679339866457 456.282813560843Q1219.317729897005 442.92805074091905 1219.317729897005 420.6311491400394L1219.317729897005 420.6311491400394L1219.317729897005 322.1507318465079L1239.3060401132589 322.1507318465079L1239.3060401132589 419.1407926765467Q1239.3060401132589 435.97305391128685 1246.9039358094956 444.38918452865687Q1254.4726088299776 452.80531514602694 1269.8145136012254 452.80531514602694L1269.8145136012254 452.80531514602694Q1285.390199778511 452.80531514602694 1292.958872798993 444.50607523167594Q1300.5567684952298 436.2068353173249 1300.5567684952298 419.1407926765467L1300.5567684952298 419.1407926765467L1300.5567684952298 322.1507318465079L1320.749637441767 322.1507318465079ZM1360.7262578742748 322.1507318465079L1380.7145680905282 322.1507318465079L1380.7145680905282 449.64926616451316L1440.2411586029689 449.64926616451316L1437.9325672183427 467.1244262658579L1360.7262578742748 467.1244262658579L1360.7262578742748 322.1507318465079Z " fill="#ffffff" transform="matrix(0.6075371389707586,0,0,0.6075371389707585,0,60.24298366140792)"/></g></svg>